<?xml version="1.0" encoding="UTF-8"?>
<svg width="17pt" height="17pt" version="1.1" viewBox="140 20 500 500" xmlns="http://www.w3.org/2000/svg" xmlns:xlink="http://www.w3.org/1999/xlink">
 <g>
  <path d="m529.2 173.6-42.109 168h-228.31l6.2734 33.602 219.35-0.003906c12.215-0.015625 23.738 5.6641 31.168 15.355 7.4258 9.6953 9.9141 22.297 6.7227 34.086-3.1914 11.789-11.695 21.418-23 26.043-11.305 4.6211-24.117 3.7109-34.656-2.4609-10.535-6.1758-17.594-16.906-19.09-29.027-1.4922-12.121 2.75-24.246 11.473-32.797h-174.83c8.6719 8.5078 12.91 20.555 11.477 32.617s-8.3789 22.777-18.805 29.012c-10.422 6.2344-23.148 7.2852-34.457 2.8438-11.305-4.4414-19.914-13.875-23.305-25.539-3.3906-11.664-1.1836-24.242 5.9766-34.055 7.1602-9.8125 18.465-15.75 30.609-16.078l-48.328-257.6h-34.551v-11.203h43.848l10.586 56.336zm-72.801 240.8c0 7.4258 2.9531 14.551 8.2031 19.801s12.371 8.1992 19.797 8.1992c7.4258 0 14.551-2.9492 19.801-8.1992s8.1992-12.375 8.1992-19.801c0-7.4258-2.9492-14.547-8.1992-19.797s-12.375-8.2031-19.801-8.2031c-7.4258 0-14.547 2.9531-19.797 8.2031s-8.2031 12.371-8.2031 19.797zm22.398-84 35.84-145.6-287.33-11.195 29.344 156.8zm-252 84c0 7.4258 2.9492 14.551 8.1992 19.801 5.2539 5.25 12.375 8.1992 19.801 8.1992s14.547-2.9492 19.797-8.1992c5.2539-5.25 8.2031-12.375 8.2031-19.801 0-7.4258-2.9492-14.547-8.2031-19.797-5.25-5.25-12.371-8.2031-19.797-8.2031s-14.547 2.9531-19.801 8.2031c-5.25 5.25-8.1992 12.371-8.1992 19.797z" fill-rule="evenodd"/>
 </g>
</svg>
