<?xml version="1.0" encoding="UTF-8"?>
<svg width="31pt" height="31pt" version="1.1" viewBox="125 20 600 500" xmlns="http://www.w3.org/2000/svg" xmlns:xlink="http://www.w3.org/1999/xlink">
 <g>
  <path d="m125.41 280.59c0 123.84 100.75 224.59 224.59 224.59s224.59-100.75 224.59-224.59-100.75-224.59-224.59-224.59-224.59 100.75-224.59 224.59zm90.812 166.08v-0.003906c0-73.23 59.578-132.81 132.81-132.81s132.81 59.578 132.81 132.81c0 0.46875 0.15625 0.88672 0.26953 1.3203-36.367 28.762-82.246 45.992-132.11 45.992-50.617 0-97.156-17.75-133.78-47.309zm133.78-379.47c117.66 0 213.39 95.727 213.39 213.39 0 62.781-27.262 119.3-70.559 158.39-3.3867-64.07-48.844-117.14-109.19-132.09 32.262-13.562 54.98-45.484 54.98-82.617 0-49.398-40.191-89.59-89.59-89.59-49.398 0.003906-89.582 40.199-89.582 89.598 0 37.133 22.715 69.055 54.977 82.617-59.816 14.816-104.98 67.105-109.06 130.42-42.234-39.016-68.75-94.812-68.75-156.71 0-117.66 95.727-213.39 213.39-213.39zm-0.96875 235.45c-43.223 0-78.391-35.164-78.391-78.391 0-43.227 35.164-78.391 78.391-78.391s78.391 35.164 78.391 78.391c0 43.227-35.164 78.391-78.391 78.391z"/>
 </g>
</svg>
